# xmcd
#
# Track frame offsets:
#        150
#        13262
#        25530
#        36042
#        46495
#        57155
#        70180
#        81945
#        95630
#        109602
#        122350
#        135912
#        146592
#        160317
#        171745
#        182852
#        195207
#        206592
#        220645
#        231157
#
# Disc length: 3254 seconds
#
# Revision: 0
# Processed by: cddbd v1.5.1PL0 Copyright (c) Steve Scherf et al.
# Submitted via: ExactAudioCopy v0.95b2
#
DISCID=110cb414
DTITLE=Oh What A Nite - The Dells
DYEAR=1997
DGENRE=Soul
TTITLE0=Oh What A Nite
TTITLE1=Time Makes You Change
TTITLE2=Dry Your Eyes
TTITLE3=Baby Open Up Your Heart
TTITLE4=Moving On
TTITLE5=Zing, Zing, Zing
TTITLE6=Why Do You Have To Go
TTITLE7=Jo Jo
TTITLE8=Pain In My Heart
TTITLE9=I Wanna Go Home
TTITLE10=Dreams Of Contentment
TTITLE11=Dance, Dance, Dance
TTITLE12=Now I Pray
TTITLE13=Baby Do
TTITLE14=O-Bop, She-Bop
TTITLE15=Someone To Call Me Darling
TTITLE16=My Best Girl
TTITLE17=Oh What A Good Nite
TTITLE18=It's Not Unusual
TTITLE19=Stay In My Corner
EXTD=
EXTT0=
EXTT1=
EXTT2=
EXTT3=
EXTT4=
EXTT5=
EXTT6=
EXTT7=
EXTT8=
EXTT9=
EXTT10=
EXTT11=
EXTT12=
EXTT13=
EXTT14=
EXTT15=
EXTT16=
EXTT17=
EXTT18=
EXTT19=
PLAYORDER=
